HIERARCHY
ROOT Hips
{
	OFFSET 0.000000 0.000000 0.000000
	CHANNELS 6 Xposition Yposition Zposition Xrotation Yrotation Zrotation
	JOINT LeftUpLeg_virtual
	{
		OFFSET 0.000000 0.000000 0.000000
		CHANNELS 3 Xrotation Yrotation Zrotation
		JOINT LeftUpLeg
		{
			OFFSET 10.205400 -3.823500 0.155100
			CHANNELS 3 Xrotation Yrotation Zrotation
			JOINT LeftLeg
			{
				OFFSET 0.708757 -12.982077 0.567790
				CHANNELS 3 Xrotation Yrotation Zrotation
				JOINT LeftFoot
				{
					OFFSET -0.708756 -10.717838 -2.184338
					CHANNELS 3 Xrotation Yrotation Zrotation
					JOINT LeftToeBase
					{
						OFFSET 0.108149 -7.191104 7.560241
						CHANNELS 3 Xrotation Yrotation Zrotation
						JOINT LeftToe_End
						{
							OFFSET 0.070230 0.081724 4.490308
							CHANNELS 3 Xrotation Yrotation Zrotation
							End Site
							{
								OFFSET 0 0 0
							}
						}
					}
				}
			}
		}
	}
	JOINT RightUpLeg_virtual
	{
		OFFSET 0.000000 0.000000 0.000000
		CHANNELS 3 Xrotation Yrotation Zrotation
		JOINT RightUpLeg
		{
			OFFSET -10.205400 -3.823500 0.005500
			CHANNELS 3 Xrotation Yrotation Zrotation
			JOINT RightLeg
			{
				OFFSET -0.708756 -12.982134 0.610632
				CHANNELS 3 Xrotation Yrotation Zrotation
				JOINT RightFoot
				{
					OFFSET 0.708754 -10.717769 -1.945823
					CHANNELS 3 Xrotation Yrotation Zrotation
					JOINT RightToeBase
					{
						OFFSET -0.108140 -7.191069 7.372968
						CHANNELS 3 Xrotation Yrotation Zrotation
						JOINT RightToe_End
						{
							OFFSET -0.070227 0.081735 4.479403
							CHANNELS 3 Xrotation Yrotation Zrotation
							End Site
							{
								OFFSET 0 0 0
							}
						}
					}
				}
			}
		}
	}
	JOINT Spine_virtual
	{
		OFFSET 0.000000 0.000000 0.000000
		CHANNELS 3 Xrotation Yrotation Zrotation
		JOINT Spine
		{
			OFFSET 0.000000 6.876099 0.125700
			CHANNELS 3 Xrotation Yrotation Zrotation
			JOINT Spine1
			{
				OFFSET 0.000000 5.730043 0.104720
				CHANNELS 3 Xrotation Yrotation Zrotation
				JOINT Spine1_split
				{
					OFFSET 0.000000 5.730043 0.104720
					CHANNELS 3 Xrotation Yrotation Zrotation
					JOINT Spine2
					{
						OFFSET 0.000000 5.730043 0.104720
						CHANNELS 3 Xrotation Yrotation Zrotation
						JOINT Neck_virtual
						{
							OFFSET 0.000000 0.000000 0.000000
							CHANNELS 3 Xrotation Yrotation Zrotation
							JOINT Neck
							{
								OFFSET 0.000000 10.314075 0.188496
								CHANNELS 3 Xrotation Yrotation Zrotation
								JOINT Head
								{
									OFFSET 0.000000 7.643700 -2.377400
									CHANNELS 3 Xrotation Yrotation Zrotation
									JOINT HeadTop_End
									{
										OFFSET 0.000000 43.788605 -13.619600
										CHANNELS 3 Xrotation Yrotation Zrotation
										End Site
										{
											OFFSET 0 0 0
										}
									}
								}
							}
						}
						JOINT LeftShoulder_virtual
						{
							OFFSET 0.000000 0.000000 0.000000
							CHANNELS 3 Xrotation Yrotation Zrotation
							JOINT LeftShoulder
							{
								OFFSET 2.196100 4.412489 0.087492
								CHANNELS 3 Xrotation Yrotation Zrotation
								JOINT LeftShoulder_split
								{
									OFFSET 2.196100 4.412489 0.087492
									CHANNELS 3 Xrotation Yrotation Zrotation
									JOINT LeftArm
									{
										OFFSET 8.771219 -2.981674 -0.026999
										CHANNELS 3 Xrotation Yrotation Zrotation
										JOINT LeftForeArm
										{
											OFFSET 8.512804 0.000000 -0.000000
											CHANNELS 3 Xrotation Yrotation Zrotation
											JOINT LeftHand
											{
												OFFSET 18.484802 0.000000 -0.000000
												CHANNELS 3 Xrotation Yrotation Zrotation
												End Site
												{
													OFFSET 0 0 0
												}
											}
										}
									}
								}
							}
						}
						JOINT RightShoulder_virtual
						{
							OFFSET 0.000000 0.000000 0.000000
							CHANNELS 3 Xrotation Yrotation Zrotation
							JOINT RightShoulder
							{
								OFFSET -2.196100 4.412496 0.070690
								CHANNELS 3 Xrotation Yrotation Zrotation
								JOINT RightShoulder_split
								{
									OFFSET -2.196100 4.412496 0.070690
									CHANNELS 3 Xrotation Yrotation Zrotation
									JOINT RightArm
									{
										OFFSET -8.771282 -2.981682 -0.094208
										CHANNELS 3 Xrotation Yrotation Zrotation
										JOINT RightForeArm
										{
											OFFSET -8.494598 0.000000 0.000000
											CHANNELS 3 Xrotation Yrotation Zrotation
											JOINT RightHand
											{
												OFFSET -18.483803 0.000000 0.000001
												CHANNELS 3 Xrotation Yrotation Zrotation
												End Site
												{
													OFFSET 0 0 0
												}
											}
										}
									}
								}
							}
						}
					}
				}
			}
		}
	}
}
MOTION
Frames: 7
Frame Time: 0.03333333
5.553302 29.869747 -7.985578 0.000000 0.000000 0.000000 12.233218 8.892162 1.357506 -7.343118 17.921129 20.553619 44.160281 -8.999559 -1.704558 -16.513762 -3.453832 -15.730119 1.492738 -4.884366 4.244008 0.000000 0.000000 0.000000 10.044585 5.564998 2.008863 -51.358549 6.209505 -7.185519 58.497422 2.639696 -0.258163 -12.384491 -6.561765 34.361097 7.709049 1.679335 -9.723663 0.000000 0.000000 0.000000 14.420029 10.002235 1.208500 -13.127823 -7.266631 -3.074202 5.173962 -5.325237 3.465905 0.029551 -0.374978 -0.010131 0.000000 0.000000 0.000000 3.622907 -3.622574 3.986140 10.142324 11.608806 5.526708 -6.604744 32.720895 1.924150 0.000000 0.000000 0.000000 7.599337 -4.583021 4.181688 7.444265 -9.176791 0.802768 4.422942 -6.172022 3.498800 -40.283110 1.470990 -21.219180 179.358951 -63.244164 178.630607 0.000000 0.000000 0.000000 7.133630 -4.618737 3.932972 -3.416551 -7.358201 21.236901 -1.478745 4.674914 -6.186405 -42.392416 -1.695208 31.286177 -156.574833 50.265035 172.712699 0.000000 0.000000 0.000000 
5.693094 30.502516 -8.694072 0.000000 0.000000 0.000000 13.527586 9.993240 -0.481018 -21.295377 11.505920 26.290213 59.634443 -7.731330 -2.233241 -2.183939 -3.929617 -11.811911 6.886820 -4.229249 -1.611119 0.000000 0.000000 0.000000 11.366227 6.864990 0.691042 -45.122087 3.783016 -5.627980 53.664878 3.455002 -1.851115 -16.722455 -6.042942 31.030004 2.690568 2.811370 -9.080199 0.000000 0.000000 0.000000 14.913510 9.296927 0.572161 -9.143444 -6.835145 -1.965091 4.617853 -5.457433 1.813453 -0.003956 -0.154170 -0.069774 0.000000 0.000000 0.000000 3.053793 -3.763137 2.499324 11.270604 11.307213 6.572396 -9.518808 30.915335 5.780388 0.000000 0.000000 0.000000 6.962059 -4.843249 3.093512 8.761017 -10.028823 9.751473 2.874905 -5.472242 1.368841 -51.206061 -1.626486 -11.900344 -170.820859 -66.947390 -174.587545 0.000000 0.000000 0.000000 6.110113 -4.720056 2.745776 -4.775457 -5.643304 13.049066 -1.292969 2.433064 -4.604552 -55.808373 1.216939 26.534141 -148.847540 55.029871 164.121086 0.000000 0.000000 0.000000 
5.723856 30.975269 -9.217820 0.000000 0.000000 0.000000 14.569234 9.801409 -1.311244 -33.123354 5.594457 28.260241 72.772414 -4.430237 -2.155733 9.126450 -1.983200 -6.630848 6.712217 -3.623701 -8.106174 0.000000 0.000000 0.000000 12.515716 8.036764 -0.255789 -37.272612 -0.458387 -3.911515 49.810039 2.191679 -2.254295 -24.718721 -6.962965 23.035954 -3.421121 3.933056 -8.705728 0.000000 0.000000 0.000000 15.372741 8.256942 0.441980 -4.988192 -6.235956 -1.202280 4.153706 -5.688419 0.013101 -0.045437 0.095059 -0.056247 0.000000 0.000000 0.000000 2.849956 -3.981856 0.920998 12.240453 11.087206 7.116813 -12.868884 29.568548 8.535789 0.000000 0.000000 0.000000 6.384127 -5.265303 1.600181 9.825166 -9.299893 17.161088 1.849379 -4.636316 1.541974 -58.710114 -5.381352 -1.995666 -157.931746 -73.194425 -164.465505 0.000000 0.000000 0.000000 5.242010 -4.906775 1.392420 -6.051890 -3.407644 3.574136 0.573938 -0.217295 -2.980587 -65.033175 3.022129 21.162445 -134.626662 62.155548 148.166010 0.000000 0.000000 0.000000 
5.706729 31.386906 -9.638768 0.000000 0.000000 0.000000 15.166032 8.824203 -0.745750 -41.560813 2.998643 26.475592 80.363903 -0.367197 -1.609830 14.195201 0.221552 -2.274473 0.260799 -2.359575 -13.092225 0.000000 0.000000 0.000000 13.032187 7.878811 0.013833 -32.557572 -4.567356 -3.732560 48.725736 0.906730 -1.450442 -29.263003 -7.209368 15.830919 -5.420893 4.686814 -7.859248 0.000000 0.000000 0.000000 15.742628 6.758658 0.925944 -1.517586 -5.678176 -1.211120 3.825068 -5.900874 -1.448781 -0.065744 0.278870 -0.025744 0.000000 0.000000 0.000000 2.950364 -4.151585 -0.348365 12.904442 10.951125 7.078727 -16.615566 28.826906 9.938551 0.000000 0.000000 0.000000 5.911162 -5.661946 0.101439 10.230646 -7.610745 21.226787 1.050387 -4.661583 2.270469 -61.906936 -7.507706 6.054120 -139.730576 -79.185825 -148.184151 0.000000 0.000000 0.000000 4.682235 -5.056796 0.213421 -6.862212 -1.320791 -5.271505 3.448976 -1.646580 -0.956791 -68.561357 3.036183 17.260366 -112.707909 67.611660 123.881108 0.000000 0.000000 0.000000 
5.547811 31.770750 -9.922425 0.000000 0.000000 0.000000 15.742850 7.644000 0.890541 -47.299395 3.886381 22.526770 82.356864 2.285126 0.489253 14.983476 -0.234942 -1.701254 -7.078396 -0.715857 -15.424775 0.000000 0.000000 0.000000 13.501039 6.760578 1.543129 -30.701304 -6.658917 -4.670289 48.290722 1.513649 -0.411121 -30.536847 -6.733687 12.725658 -6.000416 5.348804 -7.101337 0.000000 0.000000 0.000000 16.237981 5.443630 1.775047 0.563227 -5.307256 -2.236706 3.677840 -5.948888 -2.188808 -0.008379 0.293284 -0.033095 0.000000 0.000000 0.000000 3.027387 -4.175891 -1.020452 13.159832 10.954187 6.424242 -20.181752 28.670108 10.010251 0.000000 0.000000 0.000000 5.362842 -5.790969 -1.037210 9.937210 -5.702957 20.296773 1.151455 -5.635441 2.846249 -60.982825 -6.835147 10.349570 -127.413108 -82.610073 -136.765864 0.000000 0.000000 0.000000 4.537789 -5.032681 -0.530915 -7.154778 -0.014137 -11.348902 6.227746 -0.522139 0.719368 -66.867190 1.204930 16.044794 -93.873362 69.564507 102.872075 0.000000 0.000000 0.000000 
5.270497 32.091656 -9.893418 0.000000 0.000000 0.000000 16.544183 5.390321 2.795158 -50.236369 7.594108 17.865099 78.417737 2.986323 3.537239 12.275102 -3.039043 -3.610397 -9.728346 -0.034663 -14.531140 0.000000 0.000000 0.000000 14.689461 5.225245 3.217189 -28.288583 -6.072626 -5.053568 46.147903 3.957429 0.256894 -31.301172 -6.058791 12.706297 -9.356602 6.149000 -6.821850 0.000000 0.000000 0.000000 16.548128 4.178350 2.374835 1.029875 -5.060408 -3.977944 3.657779 -5.714152 -1.996778 0.083159 0.320833 0.066739 0.000000 0.000000 0.000000 2.871283 -3.923406 -0.966691 12.897365 10.999514 5.150681 -22.697581 28.857488 8.907668 0.000000 0.000000 0.000000 4.918505 -5.534952 -1.494299 9.260756 -4.032391 14.438392 1.810760 -7.081529 2.692656 -56.111237 -3.788380 9.954440 -145.311906 -83.592834 -154.668172 0.000000 0.000000 0.000000 4.846804 -4.644447 -0.652999 -7.210521 0.145241 -13.404986 8.938439 2.764221 3.321944 -61.474592 -1.353445 18.234653 -90.399049 71.102884 97.979453 0.000000 0.000000 0.000000 
4.959718 32.163643 -9.663831 0.000000 0.000000 0.000000 17.275705 1.780386 4.099166 -51.674083 12.397794 13.921200 70.374984 2.244044 6.561222 6.203111 -6.437583 -6.405977 -6.635168 -0.338254 -11.348504 0.000000 0.000000 0.000000 16.297994 3.008805 3.922339 -23.777533 -3.869142 -3.715336 42.286032 5.881081 0.411980 -32.435510 -6.885408 13.105271 -13.136664 6.823348 -6.860054 0.000000 0.000000 0.000000 16.451769 2.776532 2.391442 0.137783 -4.658075 -5.816636 3.806010 -5.079545 -0.971903 0.123581 0.442293 0.133618 0.000000 0.000000 0.000000 2.327050 -3.269902 -0.268016 12.361894 11.143085 3.337208 -23.481132 28.920148 6.666178 0.000000 0.000000 0.000000 4.584195 -4.815513 -1.243509 8.591832 -2.973113 4.854803 2.203975 -8.779246 2.260629 -48.355837 0.153241 4.722740 -172.266045 -82.541224 178.882108 0.000000 0.000000 0.000000 5.479006 -3.753847 -0.158982 -7.281818 -1.008551 -11.606479 10.864678 7.313129 6.920655 -53.474026 -3.620707 22.792322 -100.842941 73.330441 107.954459 0.000000 0.000000 0.000000 
